<svg width="286" height="48" viewBox="0 0 286 48" fill="none" xmlns="http://www.w3.org/2000/svg">
<path d="M22.0586 38.11C22.0586 38.9227 21.8112 39.6647 21.3166 40.336C20.8572 40.972 19.9916 41.29 18.7196 41.29H2.07755C0.734888 41.29 0.0635547 40.4067 0.0635547 38.64C0.0988881 36.838 0.770221 35.937 2.07755 35.937H15.2746C15.5219 35.937 15.6632 35.884 15.6986 35.778C15.7339 35.672 15.7516 35.5483 15.7516 35.407V19.878C15.7516 18.182 16.7939 17.334 18.8786 17.334C20.9986 17.334 22.0586 18.182 22.0586 19.878V38.11ZM36.5806 35.725C36.5806 37.421 35.5206 38.269 33.4006 38.269C31.3159 38.269 30.2736 37.421 30.2736 35.725V8.377C30.2736 8.23566 30.2559 8.112 30.2206 8.006C30.1852 7.9 30.0439 7.847 29.7966 7.847H6.05256C4.74522 7.847 4.07389 6.96366 4.03855 5.197C4.03855 3.395 4.70989 2.494 6.05256 2.494H33.2416C34.5136 2.494 35.3792 2.82966 35.8386 3.501C36.3332 4.137 36.5806 4.86133 36.5806 5.674V35.725ZM68.1238 43.834C68.1238 45.53 67.0638 46.378 64.9438 46.378C62.8592 46.378 61.8168 45.53 61.8168 43.834V28.146C61.8168 28.0047 61.7992 27.881 61.7638 27.775C61.7285 27.669 61.5872 27.616 61.3398 27.616H43.6908C42.3835 27.616 41.7122 26.7327 41.6768 24.966C41.6768 23.164 42.3482 22.263 43.6908 22.263H64.7848C66.0568 22.263 66.9225 22.5987 67.3818 23.27C67.8765 23.906 68.1238 24.6303 68.1238 25.443V43.834ZM78.7238 23.005C78.7238 24.701 77.6638 25.549 75.5438 25.549C73.4592 25.549 72.4168 24.701 72.4168 23.005V8.377C72.4168 8.23566 72.3992 8.112 72.3638 8.006C72.3285 7.9 72.1872 7.847 71.9398 7.847H49.1498C47.8425 7.847 47.1712 6.96366 47.1358 5.197C47.1358 3.395 47.8072 2.494 49.1498 2.494H75.3848C76.6568 2.494 77.5225 2.82966 77.9818 3.501C78.4765 4.137 78.7238 4.86133 78.7238 5.674V23.005ZM119.383 12.299C119.383 13.4297 118.977 14.4013 118.164 15.214C117.387 15.9913 116.433 16.38 115.302 16.38C114.171 16.38 113.2 15.9913 112.387 15.214C111.61 14.4013 111.221 13.4297 111.221 12.299C111.221 11.1683 111.61 10.2143 112.387 9.437C113.2 8.62433 114.171 8.218 115.302 8.218C116.433 8.218 117.387 8.62433 118.164 9.437C118.977 10.2143 119.383 11.1683 119.383 12.299ZM126.591 43.834C126.591 45.53 125.531 46.378 123.411 46.378C121.326 46.378 120.284 45.53 120.284 43.834V3.872C120.284 2.176 121.326 1.328 123.411 1.328C125.531 1.328 126.591 2.176 126.591 3.872V43.834ZM109.207 19.454C109.207 20.2667 108.96 21.0087 108.465 21.68C108.006 22.316 107.14 22.634 105.868 22.634H93.0951C92.8478 22.634 92.7065 22.687 92.6711 22.793C92.6358 22.899 92.6181 23.0227 92.6181 23.164V33.128C92.6181 33.2693 92.6535 33.393 92.7241 33.499C92.8301 33.605 92.9538 33.658 93.0951 33.658C95.1798 33.764 98.1301 33.3753 101.946 32.492C105.797 31.5733 108.907 30.6193 111.274 29.63C112.617 29.0293 113.641 29.577 114.348 31.273C115.055 32.969 114.525 34.241 112.758 35.089C110.497 36.1843 107.158 37.2267 102.741 38.216C98.3245 39.2053 93.9608 39.6293 89.6501 39.488C88.7668 39.4527 87.9895 39.117 87.3181 38.481C86.6468 37.845 86.3111 37.1207 86.3111 36.308V20.461C86.3111 19.6483 86.5408 18.924 87.0001 18.288C87.4948 17.6167 88.3781 17.281 89.6501 17.281H102.423C102.67 17.281 102.812 17.228 102.847 17.122C102.882 17.016 102.9 16.8923 102.9 16.751V8.377C102.9 8.23566 102.882 8.112 102.847 8.006C102.812 7.9 102.67 7.847 102.423 7.847H88.3251C87.0178 7.847 86.3465 6.96366 86.3111 5.197C86.3111 3.395 86.9825 2.494 88.3251 2.494H105.868C107.14 2.494 108.006 2.82966 108.465 3.501C108.96 4.137 109.207 4.86133 109.207 5.674V19.454ZM119.383 25.019C119.383 26.1497 118.977 27.1213 118.164 27.934C117.387 28.7113 116.433 29.1 115.302 29.1C114.171 29.1 113.2 28.7113 112.387 27.934C111.61 27.1213 111.221 26.1497 111.221 25.019C111.221 23.8883 111.61 22.9343 112.387 22.157C113.2 21.3443 114.171 20.938 115.302 20.938C116.433 20.938 117.387 21.3443 118.164 22.157C118.977 22.9343 119.383 23.8883 119.383 25.019ZM160.785 22.316C160.785 25.39 159.584 28.0577 157.181 30.319L156.757 30.69C157.711 31.0433 158.188 31.7853 158.188 32.916V41.714C158.188 41.8553 158.206 41.979 158.241 42.085C158.277 42.191 158.418 42.244 158.665 42.244H182.515C183.823 42.244 184.476 43.145 184.476 44.947C184.512 46.7137 183.858 47.597 182.515 47.597H155.22C153.948 47.597 153.065 47.2613 152.57 46.59C152.111 45.954 151.881 45.2297 151.881 44.417V33.287C150.821 33.5343 149.708 33.658 148.542 33.658C145.115 33.658 142.2 32.545 139.797 30.319C137.395 28.093 136.193 25.4253 136.193 22.316C136.193 19.1713 137.395 16.5037 139.797 14.313C140.681 13.5003 141.635 12.829 142.659 12.299H136.193C134.886 12.299 134.215 11.4157 134.179 9.649C134.179 7.847 134.851 6.946 136.193 6.946H145.415V3.342C145.415 1.646 146.458 0.797997 148.542 0.797997C150.662 0.797997 151.722 1.646 151.722 3.342V6.946H160.573C161.951 6.946 162.623 7.847 162.587 9.649C162.587 11.4157 161.916 12.299 160.573 12.299H154.319C155.344 12.829 156.298 13.518 157.181 14.366C159.584 16.592 160.785 19.242 160.785 22.316ZM173.664 31.326C173.664 33.022 172.604 33.87 170.484 33.87C168.4 33.87 167.357 33.022 167.357 31.326V3.872C167.357 2.176 168.4 1.328 170.484 1.328C172.604 1.328 173.664 2.176 173.664 3.872V31.326ZM154.531 21.998C154.531 20.196 153.931 18.6767 152.729 17.44C151.563 16.2033 150.168 15.585 148.542 15.585C146.917 15.585 145.504 16.2033 144.302 17.44C143.136 18.6767 142.553 20.196 142.553 21.998C142.553 23.8 143.136 25.3193 144.302 26.556C145.504 27.7927 146.917 28.411 148.542 28.411C150.168 28.411 151.563 27.7927 152.729 26.556C153.931 25.3193 154.531 23.8 154.531 21.998ZM183.575 16.009C183.575 17.1397 183.169 18.1113 182.356 18.924C181.579 19.7013 180.625 20.09 179.494 20.09C178.364 20.09 177.392 19.7013 176.579 18.924C175.802 18.1113 175.413 17.1397 175.413 16.009C175.413 14.8783 175.802 13.9243 176.579 13.147C177.392 12.3343 178.364 11.928 179.494 11.928C180.625 11.928 181.579 12.3343 182.356 13.147C183.169 13.9243 183.575 14.8783 183.575 16.009ZM230.003 43.834C230.003 45.53 228.943 46.378 226.823 46.378C224.739 46.378 223.696 45.53 223.696 43.834V3.872C223.696 2.176 224.739 1.328 226.823 1.328C228.943 1.328 230.003 2.176 230.003 3.872V43.834ZM188.716 39.965C187.409 39.965 186.738 39.0817 186.702 37.315C186.702 35.513 187.374 34.612 188.716 34.612H220.304C221.682 34.612 222.354 35.513 222.318 37.315C222.318 39.0817 221.647 39.965 220.304 39.965H188.716ZM217.389 14.207C217.389 17.6343 216.064 20.5847 213.414 23.058C210.8 25.496 207.602 26.715 203.821 26.715C199.97 26.715 196.719 25.496 194.069 23.058C191.455 20.62 190.147 17.6697 190.147 14.207C190.147 10.7443 191.455 7.794 194.069 5.356C196.719 2.918 199.97 1.699 203.821 1.699C207.602 1.699 210.8 2.93566 213.414 5.409C216.064 7.847 217.389 10.7797 217.389 14.207ZM211.082 14.207C211.082 12.193 210.393 10.497 209.015 9.119C207.637 7.741 205.906 7.052 203.821 7.052C201.737 7.052 200.005 7.741 198.627 9.119C197.249 10.497 196.56 12.193 196.56 14.207C196.56 16.221 197.249 17.917 198.627 19.295C200.005 20.673 201.737 21.362 203.821 21.362C205.906 21.362 207.637 20.673 209.015 19.295C210.393 17.917 211.082 16.221 211.082 14.207ZM272.518 23.959C272.518 25.0543 272.147 25.973 271.405 26.715C270.663 27.457 269.745 27.828 268.649 27.828C267.554 27.828 266.635 27.457 265.893 26.715C265.151 25.973 264.78 25.0543 264.78 23.959C264.78 22.8637 265.151 21.945 265.893 21.203C266.635 20.461 267.554 20.09 268.649 20.09C269.745 20.09 270.663 20.461 271.405 21.203C272.147 21.945 272.518 22.8637 272.518 23.959ZM280.415 34.665C280.415 36.361 279.355 37.209 277.235 37.209C275.151 37.209 274.108 36.361 274.108 34.665V3.872C274.108 2.176 275.151 1.328 277.235 1.328C279.355 1.328 280.415 2.176 280.415 3.872V34.665ZM255.876 34.612C255.876 36.308 254.816 37.156 252.696 37.156C250.612 37.156 249.569 36.308 249.569 34.612V29.153C249.569 29.0117 249.552 28.888 249.516 28.782C249.481 28.676 249.34 28.623 249.092 28.623H239.128C237.821 28.623 237.15 27.7397 237.114 25.973C237.114 24.171 237.786 23.27 239.128 23.27H252.537C253.809 23.27 254.675 23.6057 255.134 24.277C255.629 24.913 255.876 25.6373 255.876 26.45V34.612ZM260.752 47.703C259.48 47.703 258.597 47.3673 258.102 46.696C257.643 46.06 257.413 45.3357 257.413 44.523V33.022C257.413 31.326 258.456 30.478 260.54 30.478C262.66 30.478 263.72 31.326 263.72 33.022V41.82C263.72 41.9613 263.738 42.085 263.773 42.191C263.809 42.297 263.95 42.35 264.197 42.35H283.807C285.115 42.35 285.768 43.2333 285.768 45C285.804 46.802 285.15 47.703 283.807 47.703H260.752ZM264.674 11.928C264.674 14.7193 263.561 17.1397 261.335 19.189C259.109 21.203 256.389 22.21 253.173 22.21C249.923 22.21 247.167 21.2207 244.905 19.242C242.679 17.228 241.566 14.79 241.566 11.928C241.566 9.066 242.679 6.64566 244.905 4.667C247.167 2.653 249.923 1.646 253.173 1.646C256.389 1.646 259.109 2.67067 261.335 4.72C263.561 6.734 264.674 9.13667 264.674 11.928ZM258.367 11.928C258.367 10.5147 257.855 9.34866 256.83 8.43C255.841 7.476 254.622 6.999 253.173 6.999C251.725 6.999 250.488 7.476 249.463 8.43C248.474 9.34866 247.979 10.5147 247.979 11.928C247.979 13.3413 248.474 14.525 249.463 15.479C250.488 16.3977 251.725 16.857 253.173 16.857C254.622 16.857 255.841 16.3977 256.83 15.479C257.855 14.525 258.367 13.3413 258.367 11.928Z" fill="#3C3C5B"/>
</svg>
