<svg width="283" height="25" viewBox="0 0 283 25" fill="none" xmlns="http://www.w3.org/2000/svg">
<path d="M15.8308 11.174C16.2642 11.174 16.4808 11.356 16.4808 11.72C16.4808 12.1013 16.2815 12.318 15.8828 12.37L15.6488 12.396C15.2502 12.448 15.0508 12.6733 15.0508 13.072C15.0335 13.696 15.0162 14.32 14.9988 14.944C14.9988 15.5507 14.9988 16.1833 14.9988 16.842V17.414C14.9988 17.778 14.8428 18.0293 14.5308 18.168C13.7335 18.5667 12.9362 18.87 12.1388 19.078C11.3415 19.286 10.4748 19.39 9.53883 19.39C8.2735 19.39 7.12083 19.1733 6.08083 18.74C5.04083 18.3067 4.13949 17.7087 3.37683 16.946C2.61416 16.1833 2.02483 15.2733 1.60883 14.216C1.19283 13.1587 0.984828 12.006 0.984828 10.758C0.984828 9.47533 1.20149 8.30533 1.63483 7.248C2.06816 6.19067 2.66616 5.28067 3.42883 4.518C4.20883 3.75533 5.13616 3.166 6.21083 2.75C7.2855 2.31667 8.4555 2.1 9.72083 2.1C10.5528 2.1 11.3242 2.178 12.0348 2.334C12.7628 2.49 13.4908 2.74133 14.2188 3.088C14.5308 3.22667 14.6868 3.478 14.6868 3.842L14.7388 6.234C14.7388 6.66733 14.5308 6.884 14.1148 6.884H13.5948C13.1788 6.884 12.9448 6.68467 12.8928 6.286L12.6068 4.518C12.5548 4.17133 12.3728 3.93733 12.0608 3.816C11.3675 3.556 10.6482 3.426 9.90283 3.426C8.88016 3.426 8.00483 3.64267 7.27683 4.076C6.56616 4.50933 5.9855 5.07267 5.53483 5.766C5.10149 6.45933 4.78083 7.248 4.57283 8.132C4.38216 8.99867 4.28683 9.874 4.28683 10.758C4.28683 11.6767 4.39083 12.5693 4.59883 13.436C4.80683 14.3027 5.13616 15.0827 5.58683 15.776C6.05483 16.4693 6.65283 17.024 7.38083 17.44C8.10883 17.856 8.99283 18.064 10.0328 18.064C10.5355 18.064 11.0208 18.012 11.4888 17.908C11.8355 17.804 12.0088 17.596 12.0088 17.284V16.842C12.0088 16.2353 12.0002 15.62 11.9828 14.996C11.9828 14.372 11.9742 13.7567 11.9568 13.15C11.9568 12.7513 11.7575 12.526 11.3588 12.474L10.3708 12.37C9.95483 12.318 9.74683 12.1013 9.74683 11.72C9.74683 11.356 9.9635 11.174 10.3968 11.174H15.8308ZM23.9524 6.676C24.8537 6.676 25.677 6.84933 26.4224 7.196C27.1677 7.52533 27.8004 7.98467 28.3204 8.574C28.8577 9.146 29.265 9.822 29.5424 10.602C29.837 11.3647 29.9844 12.188 29.9844 13.072C29.9844 13.9733 29.837 14.814 29.5424 15.594C29.265 16.3567 28.8664 17.024 28.3464 17.596C27.8264 18.1507 27.1937 18.5927 26.4484 18.922C25.703 19.234 24.871 19.39 23.9524 19.39C23.0337 19.39 22.2017 19.234 21.4564 18.922C20.711 18.5927 20.0784 18.1507 19.5584 17.596C19.0384 17.024 18.631 16.3567 18.3364 15.594C18.059 14.814 17.9204 13.9733 17.9204 13.072C17.9204 12.188 18.059 11.356 18.3364 10.576C18.631 9.796 19.0384 9.12 19.5584 8.548C20.0957 7.976 20.7284 7.52533 21.4564 7.196C22.2017 6.84933 23.0337 6.676 23.9524 6.676ZM23.9524 7.846C21.959 7.846 20.9624 9.57933 20.9624 13.046C20.9624 16.478 21.959 18.194 23.9524 18.194C25.9457 18.194 26.9424 16.478 26.9424 13.046C26.9424 9.57933 25.9457 7.846 23.9524 7.846ZM43.6898 7.456V8.002C43.6898 8.43533 43.4732 8.652 43.0398 8.652H41.2718C41.6532 9.24133 41.8438 9.94333 41.8438 10.758C41.8438 11.4513 41.7138 12.058 41.4538 12.578C41.1938 13.0807 40.8472 13.5053 40.4138 13.852C39.9805 14.1813 39.4692 14.4327 38.8798 14.606C38.3078 14.762 37.7098 14.84 37.0858 14.84C36.3925 14.84 35.7772 14.7533 35.2398 14.58C35.1185 14.7707 35.0232 14.9527 34.9538 15.126C34.8845 15.282 34.8498 15.464 34.8498 15.672C34.8498 16.036 34.9712 16.3133 35.2138 16.504C35.4738 16.6773 35.8985 16.764 36.4878 16.764H39.1398C40.7172 16.764 41.8438 17.0327 42.5198 17.57C43.2132 18.09 43.5598 18.8267 43.5598 19.78C43.5598 20.612 43.3345 21.3053 42.8838 21.86C42.4332 22.432 41.8698 22.8827 41.1938 23.212C40.5352 23.5413 39.8072 23.7753 39.0098 23.914C38.2298 24.0527 37.5105 24.122 36.8518 24.122C35.0145 24.122 33.7058 23.8707 32.9258 23.368C32.1112 22.9173 31.7038 22.276 31.7038 21.444C31.7038 20.9413 31.8858 20.4733 32.2498 20.04C32.6138 19.6067 33.1945 19.1907 33.9918 18.792C33.5065 18.5493 33.1598 18.2547 32.9518 17.908C32.7438 17.544 32.6398 17.1627 32.6398 16.764C32.6398 16.2613 32.7872 15.8107 33.0818 15.412C33.3765 15.0133 33.8012 14.6147 34.3558 14.216C33.7318 13.8693 33.2465 13.41 32.8998 12.838C32.5532 12.2487 32.3798 11.5553 32.3798 10.758C32.3798 10.082 32.5098 9.49267 32.7698 8.99C33.0298 8.47 33.3765 8.04533 33.8098 7.716C34.2432 7.36933 34.7458 7.10933 35.3178 6.936C35.8898 6.76267 36.4878 6.676 37.1118 6.676C38.4292 6.676 39.5212 7.00533 40.3878 7.664L42.8318 6.858C42.9185 6.82333 42.9965 6.79733 43.0658 6.78C43.1352 6.76267 43.2045 6.754 43.2738 6.754C43.4645 6.754 43.5772 6.832 43.6118 6.988C43.6638 7.144 43.6898 7.3 43.6898 7.456ZM37.0598 13.774C37.7878 13.774 38.3425 13.5053 38.7238 12.968C39.1225 12.4133 39.3218 11.668 39.3218 10.732C39.3218 9.81333 39.1312 9.08533 38.7498 8.548C38.3685 7.99333 37.8225 7.716 37.1118 7.716C36.3838 7.716 35.8292 7.99333 35.4478 8.548C35.0838 9.10267 34.9018 9.83933 34.9018 10.758C34.9018 11.694 35.0838 12.4307 35.4478 12.968C35.8118 13.5053 36.3492 13.774 37.0598 13.774ZM38.9318 19.208H36.2018C35.9245 19.208 35.6732 19.1907 35.4478 19.156C35.2225 19.1387 35.0145 19.1127 34.8238 19.078C34.4078 19.65 34.1998 20.2307 34.1998 20.82C34.1998 21.6 34.4685 22.146 35.0058 22.458C35.5432 22.77 36.2538 22.926 37.1378 22.926C38.4552 22.926 39.4605 22.7007 40.1538 22.25C40.8472 21.8167 41.1938 21.2967 41.1938 20.69C41.1938 20.274 41.0292 19.9273 40.6998 19.65C40.5265 19.5113 40.3012 19.3987 40.0238 19.312C39.7465 19.2427 39.3825 19.208 38.9318 19.208ZM56.7097 17.102C56.7097 17.5007 56.9004 17.7347 57.2817 17.804L57.6977 17.882C58.0791 17.9687 58.2697 18.1767 58.2697 18.506C58.2697 18.8353 58.0617 19.0173 57.6457 19.052L54.8637 19.234H54.8117C54.4304 19.234 54.2137 19.0347 54.1617 18.636L54.0057 17.128C52.7057 18.636 51.2671 19.39 49.6897 19.39C49.1871 19.39 48.7277 19.3033 48.3117 19.13C47.8957 18.974 47.5404 18.714 47.2457 18.35C46.9511 18.0033 46.7257 17.5527 46.5697 16.998C46.4137 16.426 46.3444 15.724 46.3617 14.892L46.4137 9.146C46.4137 8.76467 46.2144 8.53067 45.8157 8.444L45.4517 8.366C45.0704 8.29667 44.8797 8.09733 44.8797 7.768C44.8797 7.456 45.0877 7.28267 45.5037 7.248L48.5197 6.988C48.5891 6.988 48.6497 6.988 48.7017 6.988C48.7537 6.97067 48.7971 6.962 48.8317 6.962C48.9531 6.962 49.0484 6.97933 49.1177 7.014C49.1871 7.08333 49.2217 7.28267 49.2217 7.612L49.1177 10.68V14.528C49.1177 15.62 49.2651 16.3827 49.5597 16.816C49.8717 17.2493 50.3051 17.466 50.8597 17.466C51.3624 17.466 51.8737 17.3273 52.3937 17.05C52.9311 16.7553 53.4424 16.374 53.9277 15.906L54.0057 9.146C54.0057 8.76467 53.8064 8.53067 53.4077 8.444L53.0437 8.366C52.6624 8.29667 52.4717 8.106 52.4717 7.794C52.4717 7.482 52.6797 7.30867 53.0957 7.274L56.0597 6.988C56.1291 6.988 56.1897 6.988 56.2417 6.988C56.2937 6.97067 56.3371 6.962 56.3717 6.962C56.4931 6.962 56.5884 6.97933 56.6577 7.014C56.6924 7.04867 56.7184 7.10933 56.7357 7.196C56.7704 7.28267 56.7877 7.42133 56.7877 7.612L56.7097 10.68V17.102ZM63.9985 6.806C64.0678 6.858 64.1198 6.92733 64.1545 7.014C64.1891 7.10067 64.2151 7.23933 64.2325 7.43L64.4145 9.588C64.8825 8.66933 65.4198 7.95867 66.0265 7.456C66.6505 6.936 67.2831 6.676 67.9245 6.676C68.2711 6.676 68.6265 6.78 68.9905 6.988C69.3545 7.196 69.5885 7.55133 69.6925 8.054C69.6925 8.53933 69.5451 8.92933 69.2505 9.224C68.9558 9.50133 68.5571 9.64 68.0545 9.64C67.4651 9.64 66.9105 9.37133 66.3905 8.834L66.2605 8.704C65.8791 9.05067 65.5325 9.44067 65.2205 9.874C64.9258 10.29 64.6658 10.7927 64.4405 11.382V17.05C64.4578 17.4487 64.6571 17.6827 65.0385 17.752L65.8705 17.908C66.2691 17.9947 66.4685 18.194 66.4685 18.506C66.4685 18.8353 66.2518 19 65.8185 19H60.6185C60.1851 19 59.9685 18.8353 59.9685 18.506C59.9685 18.194 60.1678 17.9947 60.5665 17.908L61.0865 17.804C61.4678 17.7173 61.6671 17.492 61.6845 17.128V12.422C61.6845 12.0753 61.6845 11.7633 61.6845 11.486C61.6845 11.2087 61.6758 10.966 61.6585 10.758C61.6411 10.6193 61.6325 10.4893 61.6325 10.368C61.6325 10.2467 61.6325 10.1167 61.6325 9.978C61.5978 9.57933 61.3898 9.354 61.0085 9.302L60.3845 9.224C59.9858 9.172 59.7865 8.99 59.7865 8.678C59.7865 8.38333 59.9598 8.16667 60.3065 8.028L63.3225 6.858C63.4785 6.78867 63.6258 6.754 63.7645 6.754C63.8685 6.754 63.9465 6.77133 63.9985 6.806ZM82.0132 7.118C82.4466 7.118 82.6632 7.29133 82.6632 7.638C82.6632 7.98467 82.4639 8.20133 82.0652 8.288L81.6752 8.366C81.3286 8.418 81.0946 8.60867 80.9732 8.938L77.2552 19.104C77.0646 19.6413 76.8306 20.2393 76.5532 20.898C76.2932 21.574 75.9726 22.198 75.5912 22.77C75.2099 23.3593 74.7592 23.8533 74.2392 24.252C73.7192 24.6507 73.1126 24.85 72.4192 24.85C71.7606 24.85 71.1886 24.694 70.7032 24.382C70.2352 24.0873 70.0012 23.6713 70.0012 23.134C70.1226 22.7353 70.3306 22.4493 70.6252 22.276C70.9199 22.12 71.2579 22.042 71.6392 22.042C71.9512 22.042 72.2459 22.094 72.5232 22.198C72.8179 22.302 73.1386 22.5273 73.4852 22.874C73.5372 22.926 73.6066 22.952 73.6932 22.952C73.8839 22.952 74.0919 22.8133 74.3172 22.536C74.5426 22.276 74.7592 21.964 74.9672 21.6C75.1752 21.2533 75.3572 20.9067 75.5132 20.56C75.6866 20.2133 75.7992 19.9707 75.8512 19.832L71.4052 8.912C71.2839 8.61733 71.0586 8.43533 70.7292 8.366L70.3652 8.288C69.9839 8.21867 69.7932 8.002 69.7932 7.638C69.7932 7.29133 70.0099 7.118 70.4432 7.118H75.5652C75.9986 7.118 76.2152 7.29133 76.2152 7.638C76.2152 8.01933 76.0159 8.236 75.6172 8.288L74.9932 8.392C74.5252 8.47867 74.3692 8.73867 74.5252 9.172L77.1252 16.218L79.5692 9.146C79.7252 8.71267 79.5692 8.45267 79.1012 8.366L78.5292 8.288C78.1306 8.236 77.9312 8.01933 77.9312 7.638C77.9312 7.29133 78.1479 7.118 78.5812 7.118H82.0132ZM95.275 12.162C95.2057 12.5433 94.963 12.734 94.547 12.734H87.007C87.0417 14.3113 87.423 15.4987 88.151 16.296C88.879 17.0933 89.8237 17.492 90.985 17.492C91.661 17.492 92.233 17.3707 92.701 17.128C93.1864 16.868 93.6284 16.5127 94.027 16.062C94.2177 15.854 94.3997 15.75 94.573 15.75C94.6597 15.75 94.7377 15.776 94.807 15.828C95.067 16.0013 95.1017 16.2613 94.911 16.608C94.4604 17.492 93.8104 18.168 92.961 18.636C92.1117 19.104 91.115 19.338 89.971 19.338C89.0004 19.338 88.1337 19.1733 87.371 18.844C86.6257 18.5147 85.993 18.064 85.473 17.492C84.9704 16.9027 84.589 16.2093 84.329 15.412C84.069 14.6147 83.939 13.748 83.939 12.812C83.939 11.9107 84.0864 11.0527 84.381 10.238C84.6757 9.42333 85.0917 8.71267 85.629 8.106C86.1837 7.482 86.8424 6.99667 87.605 6.65C88.385 6.286 89.243 6.104 90.179 6.104C90.959 6.104 91.661 6.234 92.285 6.494C92.9264 6.754 93.4724 7.118 93.923 7.586C94.3737 8.03667 94.7204 8.58267 94.963 9.224C95.2057 9.86533 95.327 10.576 95.327 11.356C95.327 11.4947 95.327 11.6333 95.327 11.772C95.327 11.8933 95.3097 12.0233 95.275 12.162ZM87.059 11.538H90.959C91.583 11.538 91.999 11.408 92.207 11.148C92.4324 10.888 92.545 10.524 92.545 10.056C92.545 9.276 92.3197 8.626 91.869 8.106C91.4357 7.586 90.8897 7.326 90.231 7.326C89.6937 7.326 89.2257 7.46467 88.827 7.742C88.4457 8.002 88.125 8.34 87.865 8.756C87.6224 9.172 87.4317 9.63133 87.293 10.134C87.1717 10.6193 87.0937 11.0873 87.059 11.538ZM103.323 6.676C104.225 6.676 105.048 6.84933 105.793 7.196C106.539 7.52533 107.171 7.98467 107.691 8.574C108.229 9.146 108.636 9.822 108.913 10.602C109.208 11.3647 109.355 12.188 109.355 13.072C109.355 13.9733 109.208 14.814 108.913 15.594C108.636 16.3567 108.237 17.024 107.717 17.596C107.197 18.1507 106.565 18.5927 105.819 18.922C105.074 19.234 104.242 19.39 103.323 19.39C102.405 19.39 101.573 19.234 100.827 18.922C100.082 18.5927 99.4495 18.1507 98.9295 17.596C98.4095 17.024 98.0021 16.3567 97.7075 15.594C97.4301 14.814 97.2915 13.9733 97.2915 13.072C97.2915 12.188 97.4301 11.356 97.7075 10.576C98.0021 9.796 98.4095 9.12 98.9295 8.548C99.4668 7.976 100.099 7.52533 100.827 7.196C101.573 6.84933 102.405 6.676 103.323 6.676ZM103.323 7.846C101.33 7.846 100.333 9.57933 100.333 13.046C100.333 16.478 101.33 18.194 103.323 18.194C105.317 18.194 106.313 16.478 106.313 13.046C106.313 9.57933 105.317 7.846 103.323 7.846ZM125 2.1C126.231 2.1 127.323 2.334 128.276 2.802C129.247 3.27 130.07 3.90267 130.746 4.7C131.422 5.48 131.933 6.39867 132.28 7.456C132.644 8.496 132.826 9.59667 132.826 10.758C132.826 11.902 132.644 12.994 132.28 14.034C131.916 15.074 131.396 15.9927 130.72 16.79C130.044 17.5873 129.221 18.22 128.25 18.688C127.297 19.156 126.213 19.39 125 19.39C124.012 19.39 123.05 19.208 122.114 18.844C121.178 18.4627 120.337 17.908 119.592 17.18C118.847 16.452 118.249 15.5593 117.798 14.502C117.347 13.4447 117.122 12.1967 117.122 10.758C117.122 9.614 117.304 8.522 117.668 7.482C118.032 6.42467 118.552 5.49733 119.228 4.7C119.921 3.90267 120.753 3.27 121.724 2.802C122.695 2.334 123.787 2.1 125 2.1ZM120.424 10.758C120.424 11.486 120.485 12.2747 120.606 13.124C120.745 13.9733 120.987 14.762 121.334 15.49C121.681 16.218 122.149 16.8333 122.738 17.336C123.327 17.8213 124.081 18.064 125 18.064C125.919 18.064 126.673 17.8213 127.262 17.336C127.851 16.8333 128.311 16.218 128.64 15.49C128.987 14.7447 129.229 13.9473 129.368 13.098C129.507 12.2487 129.576 11.4687 129.576 10.758C129.576 10.0473 129.507 9.26733 129.368 8.418C129.247 7.55133 129.013 6.754 128.666 6.026C128.319 5.28067 127.851 4.66533 127.262 4.18C126.673 3.67733 125.919 3.426 125 3.426C124.081 3.426 123.319 3.67733 122.712 4.18C122.123 4.66533 121.655 5.28067 121.308 6.026C120.979 6.754 120.745 7.54267 120.606 8.392C120.485 9.24133 120.424 10.03 120.424 10.758ZM138.85 6.806C138.919 6.858 138.971 6.92733 139.006 7.014C139.041 7.10067 139.067 7.23933 139.084 7.43L139.266 9.588C139.734 8.66933 140.271 7.95867 140.878 7.456C141.502 6.936 142.135 6.676 142.776 6.676C143.123 6.676 143.478 6.78 143.842 6.988C144.206 7.196 144.44 7.55133 144.544 8.054C144.544 8.53933 144.397 8.92933 144.102 9.224C143.807 9.50133 143.409 9.64 142.906 9.64C142.317 9.64 141.762 9.37133 141.242 8.834L141.112 8.704C140.731 9.05067 140.384 9.44067 140.072 9.874C139.777 10.29 139.517 10.7927 139.292 11.382V17.05C139.309 17.4487 139.509 17.6827 139.89 17.752L140.722 17.908C141.121 17.9947 141.32 18.194 141.32 18.506C141.32 18.8353 141.103 19 140.67 19H135.47C135.037 19 134.82 18.8353 134.82 18.506C134.82 18.194 135.019 17.9947 135.418 17.908L135.938 17.804C136.319 17.7173 136.519 17.492 136.536 17.128V12.422C136.536 12.0753 136.536 11.7633 136.536 11.486C136.536 11.2087 136.527 10.966 136.51 10.758C136.493 10.6193 136.484 10.4893 136.484 10.368C136.484 10.2467 136.484 10.1167 136.484 9.978C136.449 9.57933 136.241 9.354 135.86 9.302L135.236 9.224C134.837 9.172 134.638 8.99 134.638 8.678C134.638 8.38333 134.811 8.16667 135.158 8.028L138.174 6.858C138.33 6.78867 138.477 6.754 138.616 6.754C138.72 6.754 138.798 6.77133 138.85 6.806ZM150.209 17.128C150.226 17.492 150.425 17.7173 150.807 17.804L151.249 17.882C151.63 17.9687 151.821 18.1767 151.821 18.506C151.821 18.8353 151.604 19 151.171 19H146.387C145.953 19 145.737 18.8353 145.737 18.506C145.737 18.194 145.936 17.9947 146.335 17.908L146.855 17.804C147.236 17.7173 147.435 17.492 147.453 17.128V12.526C147.453 12.1793 147.453 11.8673 147.453 11.59C147.453 11.3127 147.444 11.0527 147.427 10.81C147.409 10.6713 147.401 10.5327 147.401 10.394C147.401 10.2553 147.401 10.1167 147.401 9.978C147.366 9.57933 147.158 9.354 146.777 9.302L146.153 9.224C145.754 9.172 145.555 8.99 145.555 8.678C145.555 8.40067 145.728 8.19267 146.075 8.054L149.455 6.832C149.541 6.79733 149.619 6.77133 149.689 6.754C149.758 6.73667 149.827 6.728 149.897 6.728C149.983 6.728 150.053 6.754 150.105 6.806C150.226 6.91 150.287 7.118 150.287 7.43L150.209 10.394V17.128ZM148.805 4.284C148.25 4.284 147.791 4.11933 147.427 3.79C147.08 3.46067 146.907 3.02733 146.907 2.49C146.907 1.95267 147.08 1.51933 147.427 1.19C147.791 0.860665 148.25 0.695999 148.805 0.695999C149.342 0.695999 149.784 0.860665 150.131 1.19C150.495 1.51933 150.677 1.95267 150.677 2.49C150.677 3.02733 150.495 3.46067 150.131 3.79C149.784 4.11933 149.342 4.284 148.805 4.284ZM164.795 12.162C164.725 12.5433 164.483 12.734 164.067 12.734H156.527C156.561 14.3113 156.943 15.4987 157.671 16.296C158.399 17.0933 159.343 17.492 160.505 17.492C161.181 17.492 161.753 17.3707 162.221 17.128C162.706 16.868 163.148 16.5127 163.547 16.062C163.737 15.854 163.919 15.75 164.093 15.75C164.179 15.75 164.257 15.776 164.327 15.828C164.587 16.0013 164.621 16.2613 164.431 16.608C163.98 17.492 163.33 18.168 162.481 18.636C161.631 19.104 160.635 19.338 159.491 19.338C158.52 19.338 157.653 19.1733 156.891 18.844C156.145 18.5147 155.513 18.064 154.993 17.492C154.49 16.9027 154.109 16.2093 153.849 15.412C153.589 14.6147 153.459 13.748 153.459 12.812C153.459 11.9107 153.606 11.0527 153.901 10.238C154.195 9.42333 154.611 8.71267 155.149 8.106C155.703 7.482 156.362 6.99667 157.125 6.65C157.905 6.286 158.763 6.104 159.699 6.104C160.479 6.104 161.181 6.234 161.805 6.494C162.446 6.754 162.992 7.118 163.443 7.586C163.893 8.03667 164.24 8.58267 164.483 9.224C164.725 9.86533 164.847 10.576 164.847 11.356C164.847 11.4947 164.847 11.6333 164.847 11.772C164.847 11.8933 164.829 12.0233 164.795 12.162ZM156.579 11.538H160.479C161.103 11.538 161.519 11.408 161.727 11.148C161.952 10.888 162.065 10.524 162.065 10.056C162.065 9.276 161.839 8.626 161.389 8.106C160.955 7.586 160.409 7.326 159.751 7.326C159.213 7.326 158.745 7.46467 158.347 7.742C157.965 8.002 157.645 8.34 157.385 8.756C157.142 9.172 156.951 9.63133 156.813 10.134C156.691 10.6193 156.613 11.0873 156.579 11.538ZM178.979 17.128C178.996 17.492 179.196 17.7173 179.577 17.804L180.019 17.882C180.4 17.9687 180.591 18.1767 180.591 18.506C180.591 18.8353 180.374 19 179.941 19H175.157C174.724 19 174.507 18.8353 174.507 18.506C174.507 18.1767 174.698 17.9773 175.079 17.908L175.599 17.804C175.98 17.7173 176.18 17.492 176.197 17.128V11.46C176.197 10.42 176.067 9.68333 175.807 9.25C175.564 8.79933 175.114 8.574 174.455 8.574C173.918 8.574 173.398 8.704 172.895 8.964C172.41 9.224 171.89 9.614 171.335 10.134V17.128C171.352 17.492 171.552 17.7173 171.933 17.804L172.401 17.908C172.782 17.9773 172.973 18.1767 172.973 18.506C172.973 18.8353 172.756 19 172.323 19H167.487C167.054 19 166.837 18.8353 166.837 18.506C166.837 18.194 167.036 17.9947 167.435 17.908L167.981 17.804C168.362 17.7173 168.562 17.492 168.579 17.128V12.422C168.579 12.0753 168.579 11.7633 168.579 11.486C168.579 11.2087 168.57 10.966 168.553 10.758C168.536 10.6193 168.527 10.4893 168.527 10.368C168.527 10.2467 168.527 10.1167 168.527 9.978C168.492 9.57933 168.284 9.354 167.903 9.302L167.279 9.224C166.88 9.172 166.681 8.99 166.681 8.678C166.681 8.38333 166.854 8.16667 167.201 8.028L170.217 6.858C170.373 6.78867 170.529 6.754 170.685 6.754C170.789 6.754 170.858 6.77133 170.893 6.806C171.032 6.89267 171.11 7.092 171.127 7.404L171.257 8.938C171.916 8.17533 172.583 7.612 173.259 7.248C173.935 6.86667 174.698 6.676 175.547 6.676C176.691 6.676 177.549 7.03133 178.121 7.742C178.693 8.43533 178.979 9.57933 178.979 11.174V17.128ZM188.517 17.284C188.708 17.18 188.872 17.128 189.011 17.128C189.15 17.128 189.271 17.1887 189.375 17.31C189.6 17.5873 189.583 17.8647 189.323 18.142C188.994 18.4887 188.586 18.766 188.101 18.974C187.633 19.1647 187.07 19.26 186.411 19.26C185.458 19.26 184.704 19.026 184.149 18.558C183.612 18.0727 183.343 17.3187 183.343 16.296C183.343 16.0707 183.343 15.8713 183.343 15.698C183.343 15.5073 183.352 15.3253 183.369 15.152V9.224C183.369 8.79067 183.152 8.574 182.719 8.574H182.173C181.74 8.574 181.523 8.366 181.523 7.95C181.523 7.55133 181.722 7.326 182.121 7.274L183.031 7.17C183.395 7.118 183.612 6.91 183.681 6.546L184.149 4.206C184.218 3.82467 184.452 3.634 184.851 3.634H185.579C185.995 3.634 186.203 3.85067 186.203 4.284L186.151 6.468C186.151 6.90133 186.368 7.118 186.801 7.118H188.595C189.028 7.118 189.245 7.33467 189.245 7.768V7.924C189.245 8.35733 189.028 8.574 188.595 8.574H186.775C186.342 8.574 186.125 8.79067 186.125 9.224V15.802C186.125 16.4433 186.246 16.9027 186.489 17.18C186.749 17.4573 187.078 17.596 187.477 17.596C187.616 17.596 187.772 17.5787 187.945 17.544C188.136 17.492 188.326 17.4053 188.517 17.284ZM202.119 17.232C202.153 17.1973 202.266 17.2667 202.457 17.44C202.665 17.648 202.656 17.908 202.431 18.22C202.153 18.6187 201.85 18.8873 201.521 19.026C201.191 19.182 200.801 19.26 200.351 19.26C199.64 19.26 199.077 19.1127 198.661 18.818C198.262 18.506 197.985 18.0987 197.829 17.596C197.274 18.1507 196.737 18.5927 196.217 18.922C195.697 19.234 195.029 19.39 194.215 19.39C193.261 19.39 192.455 19.13 191.797 18.61C191.155 18.09 190.835 17.3273 190.835 16.322C190.835 15.646 191.017 15.0653 191.381 14.58C191.762 14.0947 192.23 13.6787 192.785 13.332C193.357 12.9853 193.963 12.6993 194.605 12.474C195.246 12.2487 195.844 12.058 196.399 11.902L197.725 11.512V10.836C197.725 9.692 197.551 8.912 197.205 8.496C196.875 8.06267 196.303 7.846 195.489 7.846C195.402 7.846 195.315 7.846 195.229 7.846C195.159 7.846 195.081 7.85467 194.995 7.872C194.648 7.88933 194.431 8.09733 194.345 8.496L194.111 9.562C193.903 10.602 193.383 11.122 192.551 11.122C192.204 11.122 191.909 11.018 191.667 10.81C191.424 10.5847 191.285 10.2987 191.251 9.952C191.407 8.98133 191.927 8.19267 192.811 7.586C193.712 6.97933 194.891 6.676 196.347 6.676C197.785 6.676 198.834 7.02267 199.493 7.716C200.151 8.40933 200.481 9.63133 200.481 11.382V16.608C200.481 17.388 200.723 17.778 201.209 17.778C201.417 17.778 201.607 17.7173 201.781 17.596C201.902 17.5093 201.98 17.44 202.015 17.388C202.049 17.3187 202.084 17.2667 202.119 17.232ZM197.725 16.582V12.552C197.309 12.656 196.858 12.786 196.373 12.942C195.905 13.098 195.463 13.2973 195.047 13.54C194.631 13.7827 194.284 14.086 194.007 14.45C193.729 14.7967 193.591 15.2213 193.591 15.724C193.591 16.3133 193.764 16.7727 194.111 17.102C194.475 17.4313 194.951 17.596 195.541 17.596C195.887 17.596 196.208 17.5267 196.503 17.388C196.815 17.2493 197.222 16.9807 197.725 16.582ZM208.046 17.102C208.046 17.5007 208.237 17.7347 208.618 17.804L209.164 17.908C209.546 17.9773 209.736 18.1767 209.736 18.506C209.736 18.8353 209.52 19 209.086 19H204.12C203.687 19 203.47 18.8353 203.47 18.506C203.47 18.194 203.67 17.9947 204.068 17.908L204.64 17.804C205.022 17.7347 205.212 17.5007 205.212 17.102C205.23 16.5473 205.238 15.9927 205.238 15.438C205.256 14.8833 205.264 14.3287 205.264 13.774V3.842C205.264 3.44333 205.065 3.218 204.666 3.166L203.886 3.062C203.488 3.01 203.288 2.828 203.288 2.516C203.288 2.204 203.479 1.996 203.86 1.892L207.292 1.008C207.379 0.973333 207.448 0.956 207.5 0.956C207.57 0.956 207.639 0.956 207.708 0.956C207.83 0.956 207.908 0.973333 207.942 1.008C208.046 1.07733 208.098 1.28533 208.098 1.632L208.02 4.648V13.774C208.02 14.3287 208.02 14.8833 208.02 15.438C208.038 15.9927 208.046 16.5473 208.046 17.102ZM228.992 15.1C229.044 14.7013 229.278 14.502 229.694 14.502H230.214C230.63 14.502 230.838 14.7187 230.838 15.152L230.786 17.7C230.786 18.0467 230.63 18.298 230.318 18.454C229.624 18.7487 228.896 18.974 228.134 19.13C227.388 19.3033 226.6 19.39 225.768 19.39C224.468 19.39 223.28 19.1907 222.206 18.792C221.148 18.376 220.238 17.7953 219.476 17.05C218.73 16.2873 218.15 15.3773 217.734 14.32C217.318 13.2453 217.11 12.058 217.11 10.758C217.11 9.458 217.326 8.27933 217.76 7.222C218.193 6.14733 218.791 5.23733 219.554 4.492C220.334 3.72933 221.261 3.14 222.336 2.724C223.41 2.308 224.589 2.1 225.872 2.1C226.548 2.1 227.232 2.16933 227.926 2.308C228.636 2.44667 229.356 2.698 230.084 3.062C230.396 3.23533 230.552 3.49533 230.552 3.842L230.604 6.39C230.604 6.82333 230.396 7.04 229.98 7.04H229.46C229.044 7.04 228.81 6.84067 228.758 6.442L228.42 4.466C228.385 4.22333 228.272 4.04133 228.082 3.92C227.908 3.78133 227.7 3.67733 227.458 3.608C227.215 3.52133 226.964 3.46933 226.704 3.452C226.444 3.43467 226.218 3.426 226.028 3.426C225.022 3.426 224.164 3.64267 223.454 4.076C222.743 4.50933 222.162 5.08133 221.712 5.792C221.261 6.48533 220.932 7.274 220.724 8.158C220.516 9.02467 220.412 9.89133 220.412 10.758C220.412 11.6247 220.507 12.5 220.698 13.384C220.906 14.2507 221.226 15.0307 221.66 15.724C222.093 16.4173 222.656 16.9807 223.35 17.414C224.06 17.8473 224.927 18.064 225.95 18.064C226.66 18.064 227.38 17.9427 228.108 17.7C228.437 17.596 228.628 17.362 228.68 16.998L228.992 15.1ZM237.118 17.102C237.118 17.5007 237.309 17.7347 237.69 17.804L238.236 17.908C238.618 17.9773 238.808 18.1767 238.808 18.506C238.808 18.8353 238.592 19 238.158 19H233.192C232.759 19 232.542 18.8353 232.542 18.506C232.542 18.194 232.742 17.9947 233.14 17.908L233.712 17.804C234.094 17.7347 234.284 17.5007 234.284 17.102C234.302 16.5473 234.31 15.9927 234.31 15.438C234.328 14.8833 234.336 14.3287 234.336 13.774V3.842C234.336 3.44333 234.137 3.218 233.738 3.166L232.958 3.062C232.56 3.01 232.36 2.828 232.36 2.516C232.36 2.204 232.551 1.996 232.932 1.892L236.364 1.008C236.451 0.973333 236.52 0.956 236.572 0.956C236.642 0.956 236.711 0.956 236.78 0.956C236.902 0.956 236.98 0.973333 237.014 1.008C237.118 1.07733 237.17 1.28533 237.17 1.632L237.092 4.648V13.774C237.092 14.3287 237.092 14.8833 237.092 15.438C237.11 15.9927 237.118 16.5473 237.118 17.102ZM244.789 17.128C244.806 17.492 245.006 17.7173 245.387 17.804L245.829 17.882C246.21 17.9687 246.401 18.1767 246.401 18.506C246.401 18.8353 246.184 19 245.751 19H240.967C240.534 19 240.317 18.8353 240.317 18.506C240.317 18.194 240.516 17.9947 240.915 17.908L241.435 17.804C241.816 17.7173 242.016 17.492 242.033 17.128V12.526C242.033 12.1793 242.033 11.8673 242.033 11.59C242.033 11.3127 242.024 11.0527 242.007 10.81C241.99 10.6713 241.981 10.5327 241.981 10.394C241.981 10.2553 241.981 10.1167 241.981 9.978C241.946 9.57933 241.738 9.354 241.357 9.302L240.733 9.224C240.334 9.172 240.135 8.99 240.135 8.678C240.135 8.40067 240.308 8.19267 240.655 8.054L244.035 6.832C244.122 6.79733 244.2 6.77133 244.269 6.754C244.338 6.73667 244.408 6.728 244.477 6.728C244.564 6.728 244.633 6.754 244.685 6.806C244.806 6.91 244.867 7.118 244.867 7.43L244.789 10.394V17.128ZM243.385 4.284C242.83 4.284 242.371 4.11933 242.007 3.79C241.66 3.46067 241.487 3.02733 241.487 2.49C241.487 1.95267 241.66 1.51933 242.007 1.19C242.371 0.860665 242.83 0.695999 243.385 0.695999C243.922 0.695999 244.364 0.860665 244.711 1.19C245.075 1.51933 245.257 1.95267 245.257 2.49C245.257 3.02733 245.075 3.46067 244.711 3.79C244.364 4.11933 243.922 4.284 243.385 4.284ZM260.077 17.128C260.094 17.492 260.293 17.7173 260.675 17.804L261.117 17.882C261.498 17.9687 261.689 18.1767 261.689 18.506C261.689 18.8353 261.472 19 261.039 19H256.255C255.821 19 255.605 18.8353 255.605 18.506C255.605 18.1767 255.795 17.9773 256.177 17.908L256.697 17.804C257.078 17.7173 257.277 17.492 257.295 17.128V11.46C257.295 10.42 257.165 9.68333 256.905 9.25C256.662 8.79933 256.211 8.574 255.553 8.574C255.015 8.574 254.495 8.704 253.993 8.964C253.507 9.224 252.987 9.614 252.433 10.134V17.128C252.45 17.492 252.649 17.7173 253.031 17.804L253.499 17.908C253.88 17.9773 254.071 18.1767 254.071 18.506C254.071 18.8353 253.854 19 253.421 19H248.585C248.151 19 247.935 18.8353 247.935 18.506C247.935 18.194 248.134 17.9947 248.533 17.908L249.079 17.804C249.46 17.7173 249.659 17.492 249.677 17.128V12.422C249.677 12.0753 249.677 11.7633 249.677 11.486C249.677 11.2087 249.668 10.966 249.651 10.758C249.633 10.6193 249.625 10.4893 249.625 10.368C249.625 10.2467 249.625 10.1167 249.625 9.978C249.59 9.57933 249.382 9.354 249.001 9.302L248.377 9.224C247.978 9.172 247.779 8.99 247.779 8.678C247.779 8.38333 247.952 8.16667 248.299 8.028L251.315 6.858C251.471 6.78867 251.627 6.754 251.783 6.754C251.887 6.754 251.956 6.77133 251.991 6.806C252.129 6.89267 252.207 7.092 252.225 7.404L252.355 8.938C253.013 8.17533 253.681 7.612 254.357 7.248C255.033 6.86667 255.795 6.676 256.645 6.676C257.789 6.676 258.647 7.03133 259.219 7.742C259.791 8.43533 260.077 9.57933 260.077 11.174V17.128ZM267.717 17.128C267.734 17.492 267.933 17.7173 268.315 17.804L268.757 17.882C269.138 17.9687 269.329 18.1767 269.329 18.506C269.329 18.8353 269.112 19 268.679 19H263.895C263.461 19 263.245 18.8353 263.245 18.506C263.245 18.194 263.444 17.9947 263.843 17.908L264.363 17.804C264.744 17.7173 264.943 17.492 264.961 17.128V12.526C264.961 12.1793 264.961 11.8673 264.961 11.59C264.961 11.3127 264.952 11.0527 264.935 10.81C264.917 10.6713 264.909 10.5327 264.909 10.394C264.909 10.2553 264.909 10.1167 264.909 9.978C264.874 9.57933 264.666 9.354 264.285 9.302L263.661 9.224C263.262 9.172 263.063 8.99 263.063 8.678C263.063 8.40067 263.236 8.19267 263.583 8.054L266.963 6.832C267.049 6.79733 267.127 6.77133 267.197 6.754C267.266 6.73667 267.335 6.728 267.405 6.728C267.491 6.728 267.561 6.754 267.613 6.806C267.734 6.91 267.795 7.118 267.795 7.43L267.717 10.394V17.128ZM266.313 4.284C265.758 4.284 265.299 4.11933 264.935 3.79C264.588 3.46067 264.415 3.02733 264.415 2.49C264.415 1.95267 264.588 1.51933 264.935 1.19C265.299 0.860665 265.758 0.695999 266.313 0.695999C266.85 0.695999 267.292 0.860665 267.639 1.19C268.003 1.51933 268.185 1.95267 268.185 2.49C268.185 3.02733 268.003 3.46067 267.639 3.79C267.292 4.11933 266.85 4.284 266.313 4.284ZM280.82 17.31C280.907 17.4487 281.002 17.5527 281.106 17.622C281.228 17.6913 281.375 17.7433 281.548 17.778L282.12 17.882C282.502 17.9687 282.692 18.1767 282.692 18.506C282.692 18.8353 282.476 19 282.042 19H277.128C276.695 19 276.478 18.8353 276.478 18.506C276.478 18.1767 276.669 17.9773 277.05 17.908L277.154 17.882C277.397 17.83 277.553 17.726 277.622 17.57C277.692 17.414 277.657 17.2407 277.518 17.05L275.75 14.32L273.826 17.024C273.688 17.2147 273.644 17.388 273.696 17.544C273.748 17.7 273.896 17.804 274.138 17.856L274.372 17.908C274.754 17.9773 274.944 18.1767 274.944 18.506C274.944 18.8353 274.728 19 274.294 19H270.81C270.377 19 270.16 18.8353 270.16 18.506C270.16 18.194 270.36 17.9947 270.758 17.908L271.46 17.778C271.79 17.726 272.041 17.5787 272.214 17.336L275.126 13.384L271.98 8.782C271.824 8.522 271.582 8.366 271.252 8.314L270.81 8.262C270.412 8.21 270.212 8.002 270.212 7.638C270.212 7.29133 270.429 7.118 270.862 7.118H275.412C275.846 7.118 276.062 7.29133 276.062 7.638C276.062 8.01933 275.863 8.236 275.464 8.288C275.256 8.32267 275.126 8.418 275.074 8.574C275.04 8.71267 275.092 8.886 275.23 9.094L276.894 11.59L278.662 9.12C278.801 8.92933 278.853 8.756 278.818 8.6C278.801 8.42667 278.697 8.32267 278.506 8.288H278.428C278.03 8.236 277.83 8.01933 277.83 7.638C277.83 7.29133 278.047 7.118 278.48 7.118H281.418C281.852 7.118 282.068 7.29133 282.068 7.638C282.068 7.98467 281.869 8.20133 281.47 8.288L281.028 8.366C280.699 8.418 280.448 8.56533 280.274 8.808L277.492 12.5L280.82 17.31Z" fill="white"/>
</svg>
