<svg width="38" height="38" viewBox="0 0 38 38" fill="none" xmlns="http://www.w3.org/2000/svg">
<rect width="38" height="38" rx="5" fill="#7575BD"/>
<path d="M14 18.8V21.2H11.6667V18.8H14ZM18.6667 18.8V21.2H16.3333V18.8H18.6667ZM23.3333 18.8V21.2H21V18.8H23.3333ZM25.6667 10.4C26.2855 10.4 26.879 10.6529 27.3166 11.1029C27.7542 11.553 28 12.1635 28 12.8V29.6C28 30.2365 27.7542 30.847 27.3166 31.2971C26.879 31.7471 26.2855 32 25.6667 32H9.33333C8.03833 32 7 30.92 7 29.6V12.8C7 12.1635 7.24583 11.553 7.68342 11.1029C8.121 10.6529 8.71449 10.4 9.33333 10.4H10.5V8H12.8333V10.4H22.1667V8H24.5V10.4H25.6667ZM25.6667 29.6V16.4H9.33333V29.6H25.6667ZM14 23.6V26H11.6667V23.6H14ZM18.6667 23.6V26H16.3333V23.6H18.6667Z" fill="white"/>
<path d="M29 18.5L25 22.5V29.5001L25.9014 28.1479C26.632 27.052 27.4691 26.0309 28.4004 25.0996L29 24.5V18.5Z" fill="#7575BD"/>
<path d="M21 22.9813C23.625 24.6402 22.3253 29.351 23.625 27.6262C26.625 23.6449 28.875 20.9907 33 19" stroke="white" stroke-width="2" stroke-linecap="round"/>
</svg>
