<svg width="42" height="47" viewBox="0 0 42 47" fill="none" xmlns="http://www.w3.org/2000/svg">
<circle cx="21" cy="26" r="21" fill="#B7B7E6"/>
<path d="M29.196 32.516C29.364 32.996 29.688 33.248 30.168 33.272L31.032 33.38C31.608 33.452 31.896 33.728 31.896 34.208C31.896 34.736 31.596 35 30.996 35H23.004C22.404 35 22.104 34.736 22.104 34.208C22.104 33.704 22.38 33.416 22.932 33.344L24.156 33.2C24.468 33.152 24.684 33.032 24.804 32.84C24.948 32.648 24.96 32.408 24.84 32.12L23.292 27.728H15.84L14.292 32.048C14.076 32.696 14.292 33.056 14.94 33.128L16.2 33.308C16.752 33.38 17.028 33.68 17.028 34.208C17.028 34.736 16.728 35 16.128 35H10.08C9.48 35 9.18 34.736 9.18 34.208C9.18 33.68 9.456 33.38 10.008 33.308L11.412 33.092C11.892 33.02 12.216 32.756 12.384 32.3L19.476 12.86C19.668 12.38 20.004 12.14 20.484 12.14H21.024C21.504 12.14 21.84 12.38 22.032 12.86L29.196 32.516ZM16.452 25.964H22.716L19.656 17.144L16.452 25.964Z" fill="white"/>
</svg>
