<svg width="38" height="38" viewBox="0 0 38 38" fill="none" xmlns="http://www.w3.org/2000/svg">
<rect width="38" height="38" rx="5" fill="#D8D8FA"/>
<path fill-rule="evenodd" clip-rule="evenodd" d="M15.6678 21.1297C14.2985 19.3626 13.3556 17.4318 12.839 15.5077L16.3619 12.7781C16.7985 12.4399 16.8782 11.8117 16.5399 11.3751L13.7625 7.79064C13.3949 7.31612 12.6949 7.27019 12.2684 7.6926L8.92999 10.9988C8.84163 11.0863 8.77274 11.1867 8.72372 11.2942L8.35246 11.5819C6.64937 15.3645 7.46028 20.621 10.7854 24.9125C14.1105 29.2038 18.9977 31.3017 23.0857 30.5975L23.4577 30.3092C23.5739 30.2886 23.6881 30.247 23.7947 30.1834L27.8298 27.7764C28.3454 27.4688 28.4757 26.7796 28.108 26.3051L25.3307 22.7206C24.9924 22.284 24.3643 22.2043 23.9277 22.5426L20.4046 25.2724C18.6707 24.2917 17.0368 22.8966 15.6678 21.1297Z" fill="#7575BD"/>
<path d="M20 12L22.5 7M22.5 16L26.5 13M25 19.5H31" stroke="#7575BD" stroke-linecap="round"/>
</svg>
