<svg width="42" height="48" viewBox="0 0 42 48" fill="none" xmlns="http://www.w3.org/2000/svg">
<circle cx="21" cy="27" r="21" fill="white"/>
<path d="M28.124 40.148C28.172 40.124 28.22 40.112 28.268 40.112C28.34 40.112 28.4 40.112 28.448 40.112C28.856 40.112 29.108 40.268 29.204 40.58C29.372 41.06 29.204 41.408 28.7 41.624C28.148 41.888 27.56 42.068 26.936 42.164C26.312 42.284 25.7 42.344 25.1 42.344C24.092 42.344 23.144 42.164 22.256 41.804C21.392 41.468 20.636 40.976 19.988 40.328C19.364 39.704 18.86 38.96 18.476 38.096C18.116 37.232 17.936 36.296 17.936 35.288C16.52 35.024 15.272 34.52 14.192 33.776C13.136 33.032 12.236 32.132 11.492 31.076C10.772 30.02 10.22 28.844 9.836 27.548C9.476 26.252 9.296 24.932 9.296 23.588C9.296 22.004 9.548 20.492 10.052 19.052C10.58 17.588 11.312 16.316 12.248 15.236C13.208 14.132 14.36 13.256 15.704 12.608C17.048 11.936 18.548 11.6 20.204 11.6C21.908 11.6 23.42 11.924 24.74 12.572C26.084 13.22 27.224 14.096 28.16 15.2C29.096 16.28 29.804 17.552 30.284 19.016C30.788 20.456 31.04 21.98 31.04 23.588C31.04 25.028 30.836 26.408 30.428 27.728C30.044 29.024 29.468 30.2 28.7 31.256C27.932 32.312 26.972 33.2 25.82 33.92C24.692 34.64 23.396 35.132 21.932 35.396C22.004 37.052 22.448 38.288 23.264 39.104C24.08 39.92 25.124 40.328 26.396 40.328C26.66 40.328 26.924 40.304 27.188 40.256C27.476 40.232 27.788 40.196 28.124 40.148ZM13.868 23.588C13.868 24.572 13.952 25.664 14.12 26.864C14.312 28.04 14.648 29.132 15.128 30.14C15.608 31.148 16.256 32 17.072 32.696C17.888 33.368 18.932 33.704 20.204 33.704C21.476 33.704 22.52 33.368 23.336 32.696C24.152 32 24.788 31.148 25.244 30.14C25.724 29.108 26.06 28.004 26.252 26.828C26.444 25.652 26.54 24.572 26.54 23.588C26.54 22.604 26.444 21.524 26.252 20.348C26.084 19.148 25.76 18.044 25.28 17.036C24.8 16.004 24.152 15.152 23.336 14.48C22.52 13.784 21.476 13.436 20.204 13.436C18.932 13.436 17.888 13.784 17.072 14.48C16.256 15.152 15.608 16.004 15.128 17.036C14.648 18.044 14.312 19.136 14.12 20.312C13.952 21.488 13.868 22.58 13.868 23.588Z" fill="#B7B7E6"/>
</svg>
